# xmcd
# Track frame offsets:
# 150
# 14282
# 26135
# 42287
# 54370
# 66560
# 79790
# 92929
# 101657
# 115403
#
# Disc length: 1696 seconds
# Revision: 0
# Processed by: cddbd v1.4PL0 Copyright (c) Steve Scherf et al.
# Submitted via: VisiTrax 2.9.5.180 - For more info visit www.synapsa.com
#
DISCID=85069e0a
DTITLE=Meisner,Swan and Rich - Meisner,Swan &Rich
DYEAR=2002
DGENRE=Country
TTITLE0=Pretty Baby
TTITLE1=You Look Like Someone I Could Love
TTITLE2=He Loves You
TTITLE3=My How Things Have Changed
TTITLE4=Who`s Gonna Love You Baby
TTITLE5=One Used Diamond
TTITLE6=Honey (Sweet,Sweet honey)
TTITLE7=Make Yourself At Home In My Heart
TTITLE8=Never Had A Broken Heart
TTITLE9=Where The Rubber Meets The Road
EXTD=
EXTT0=
EXTT1=
EXTT2=
EXTT3=
EXTT4=
EXTT5=
EXTT6=
EXTT7=
EXTT8=
EXTT9=
PLAYORDER=
